<svg xmlns="http://www.w3.org/2000/svg" width="400" height="200" viewBox="0 0 400 200"><rect width="100%" height="100%" fill="#EEE"/><path fill="#31343C" d="M97.52 87.915v3.75H90.1v20.83h-4.57v-20.83h-7.41v-3.75zm5.88 13.85h7.92q0-.81-.23-1.54-.23-.72-.69-1.26-.46-.55-1.16-.86-.71-.32-1.64-.32-1.82 0-2.87 1.04-1.04 1.04-1.33 2.94m10.71 2.54h-10.8q.11 1.34.48 2.32.37.97.99 1.61.61.64 1.45.95.84.32 1.86.32t1.76-.24 1.29-.53.97-.52q.42-.24.81-.24.53 0 .78.39l1.21 1.53q-.7.81-1.57 1.37-.86.55-1.81.88-.94.33-1.92.47t-1.89.14q-1.82 0-3.39-.61-1.56-.6-2.72-1.78-1.15-1.19-1.82-2.93-.66-1.74-.66-4.04 0-1.78.58-3.35.58-1.58 1.66-2.74t2.63-1.84q1.56-.68 3.51-.68 1.65 0 3.05.52 1.39.53 2.39 1.54 1.01 1.01 1.58 2.48.56 1.47.56 3.36 0 .95-.2 1.28-.2.34-.78.34m17.73-7.09-1.11 1.53q-.18.23-.36.37t-.52.14q-.32 0-.63-.2-.3-.19-.73-.44-.42-.25-1.01-.44-.59-.2-1.45-.2-1.11 0-1.94.4-.84.4-1.39 1.15t-.82 1.81-.27 2.4q0 1.4.29 2.49.3 1.08.86 1.82t1.36 1.13q.8.38 1.8.38 1.01 0 1.63-.25.62-.24 1.04-.54.43-.3.74-.55.32-.24.71-.24.51 0 .76.39l1.21 1.53q-.7.81-1.51 1.37-.82.55-1.69.88-.88.33-1.81.47-.92.14-1.84.14-1.62 0-3.04-.61-1.43-.6-2.5-1.76-1.07-1.15-1.69-2.83-.63-1.67-.63-3.82 0-1.92.56-3.56.55-1.64 1.62-2.84 1.07-1.19 2.65-1.87t3.64-.68q1.96 0 3.43.62 1.47.63 2.64 1.81m6.99-9.98v9.69q1.02-.95 2.24-1.55 1.22-.59 2.87-.59 1.43 0 2.54.48 1.1.48 1.84 1.36t1.12 2.09q.39 1.22.39 2.68v11.1h-4.2v-11.1q0-1.6-.73-2.47-.74-.88-2.23-.88-1.09 0-2.04.49-.95.5-1.8 1.35v12.61h-4.2v-25.26zm28.49.68v24.58h-4.59v-24.58zm8.46 7.9.29 1.38q.53-.53 1.12-.98.58-.45 1.24-.76.65-.32 1.4-.5.75-.17 1.63-.17 1.43 0 2.54.48 1.1.48 1.84 1.36t1.12 2.09q.38 1.22.38 2.68v11.1h-4.19v-11.1q0-1.6-.74-2.47-.73-.88-2.22-.88-1.09 0-2.04.49-.95.5-1.8 1.35v12.61h-4.2v-17.44h2.56q.82 0 1.07.76m19.18 0 .29 1.38q.53-.53 1.11-.98.59-.45 1.24-.76.66-.32 1.41-.5.74-.17 1.63-.17 1.43 0 2.53.48 1.11.48 1.85 1.36t1.12 2.09q.38 1.22.38 2.68v11.1h-4.2v-11.1q0-1.6-.73-2.47-.73-.88-2.23-.88-1.08 0-2.04.49-.95.5-1.8 1.35v12.61h-4.2v-17.44h2.57q.82 0 1.07.76m23.26-1.03q1.93 0 3.52.62 1.59.63 2.72 1.79t1.75 2.82q.61 1.67.61 3.72 0 2.08-.61 3.74-.62 1.67-1.75 2.84-1.13 1.18-2.72 1.81t-3.52.63q-1.96 0-3.56-.63-1.59-.63-2.72-1.81-1.14-1.17-1.76-2.84-.62-1.66-.62-3.74 0-2.05.62-3.72.62-1.66 1.76-2.82 1.13-1.16 2.72-1.79 1.6-.62 3.56-.62m0 14.73q2.17 0 3.22-1.46 1.04-1.46 1.04-4.28t-1.04-4.3q-1.05-1.48-3.22-1.48-2.21 0-3.28 1.49-1.06 1.48-1.06 4.29 0 2.8 1.06 4.27 1.07 1.47 3.28 1.47m24.22-14.46h3.32l-6.92 17.44h-3.81l-6.92-17.44h3.47q.47 0 .79.22.31.22.42.56l3.36 9.32q.27.81.48 1.59.2.79.35 1.57.17-.78.38-1.57.2-.78.49-1.59l3.44-9.32q.11-.34.42-.56t.73-.22m14.76 12.94v-2.95q-1.82.09-3.06.32t-1.99.58q-.75.36-1.07.84-.33.47-.33 1.03 0 1.11.66 1.59.65.47 1.71.47 1.29 0 2.23-.47.95-.46 1.85-1.41m-8.88-9.17-.74-1.34q3-2.76 7.24-2.76 1.53 0 2.73.51 1.21.5 2.04 1.39.84.89 1.27 2.13t.43 2.72v11.02h-1.9q-.59 0-.92-.18-.32-.18-.51-.72l-.37-1.26q-.66.6-1.29 1.05t-1.31.75q-.68.31-1.46.47-.77.16-1.7.16-1.11 0-2.04-.3-.94-.29-1.62-.89-.68-.59-1.05-1.48-.38-.88-.38-2.05 0-.67.22-1.32.22-.66.73-1.25.5-.6 1.3-1.12.8-.53 1.96-.92t2.71-.64 3.54-.3v-1.02q0-1.75-.75-2.59t-2.16-.84q-1.02 0-1.69.24t-1.18.53q-.51.3-.93.54t-.93.24q-.44 0-.74-.23-.31-.23-.5-.54m22.73 13.94q-2.28 0-3.49-1.28-1.22-1.29-1.22-3.55v-9.74h-1.78q-.34 0-.58-.22t-.24-.66v-1.67l2.81-.46.88-4.76q.09-.34.32-.52.24-.19.62-.19h2.17v5.49h4.66v2.99h-4.66v9.45q0 .82.4 1.28t1.1.46q.39 0 .65-.09.27-.1.46-.2.2-.1.35-.2.15-.09.31-.09.18 0 .3.09.12.1.26.28l1.26 2.04q-.92.77-2.11 1.16t-2.47.39m14.55-17.98q1.94 0 3.53.62 1.59.63 2.72 1.79t1.74 2.82q.62 1.67.62 3.72 0 2.08-.62 3.74-.61 1.67-1.74 2.84-1.13 1.18-2.72 1.81t-3.53.63q-1.95 0-3.55-.63t-2.73-1.81q-1.13-1.17-1.75-2.84-.62-1.66-.62-3.74 0-2.05.62-3.72.62-1.66 1.75-2.82t2.73-1.79q1.6-.62 3.55-.62m0 14.73q2.18 0 3.23-1.46 1.04-1.46 1.04-4.28t-1.04-4.3q-1.05-1.48-3.23-1.48-2.21 0-3.27 1.49-1.06 1.48-1.06 4.29 0 2.8 1.06 4.27t3.27 1.47m15.53-13.41.25 1.97q.82-1.56 1.94-2.45 1.12-.9 2.65-.9 1.21 0 1.94.53l-.27 3.15q-.09.3-.25.43t-.43.13q-.26 0-.76-.09-.5-.08-.98-.08-.69 0-1.24.2-.54.21-.98.59-.43.38-.76.92-.33.55-.62 1.25v10.74h-4.2v-17.44h2.46q.65 0 .91.23.25.23.34.82m20.57.83-.96 1.52q-.17.27-.35.38-.19.11-.48.11-.31 0-.65-.17-.35-.17-.81-.38t-1.05-.38q-.58-.17-1.38-.17-1.24 0-1.95.52-.7.53-.7 1.38 0 .56.36.94.37.39.97.67.6.29 1.37.52.76.23 1.55.5.79.28 1.56.63.76.34 1.37.88.6.53.97 1.28.36.75.36 1.8 0 1.26-.45 2.33-.45 1.06-1.33 1.83-.89.77-2.19 1.21-1.3.43-3 .43-.9 0-1.76-.16t-1.65-.45-1.46-.68-1.18-.85l.97-1.6q.19-.29.44-.44.26-.15.65-.15t.74.22.8.47q.46.26 1.08.48t1.58.22q.74 0 1.28-.18t.88-.47q.35-.28.51-.67.17-.38.17-.79 0-.61-.37-1t-.97-.68-1.38-.52q-.77-.23-1.58-.5-.8-.27-1.58-.64-.77-.36-1.37-.92-.61-.57-.97-1.38-.37-.82-.37-1.97 0-1.07.43-2.04.42-.97 1.25-1.69.82-.73 2.05-1.16t2.85-.43q1.8 0 3.28.59 1.48.6 2.47 1.56"/></svg>